# xmcd
#
# Track frame offsets:
#	150
#	12350
#	23770
#	46179
#	65253
#	75121
#	89377
#	102471
#	127478
#	137637
#
# Disc length: 2158 seconds
# Revision: 0
# Processed by: cddbd v1.5.2PL0 Copyright (c) Steve Scherf et al.
# Submitted via: dBpowerAMP V12.0
#
DISCID=7a086c0a
DTITLE=James Cotton - Dealing With The Devil
DYEAR=2004
DGENRE=Blues
TTITLE0=Off the Wall 
TTITLE1=Don't Start Me to Talking
TTITLE2=Dealing With the Devil 
TTITLE3=Creeper
TTITLE4=You Know It Ain't Right
TTITLE5=Feelin' Good
TTITLE6=Knock on Wood 
TTITLE7=Sweet Sixteen
TTITLE8=I Need You So Bad
TTITLE9='Fore Day Blues
EXTD=
EXTT0=
EXTT1=
EXTT2=
EXTT3=
EXTT4=
EXTT5=
EXTT6=
EXTT7=
EXTT8=
EXTT9=
PLAYORDER=
